<svg xmlns="http://www.w3.org/2000/svg" width="1000.008" height="1000.008" viewBox="0 0 380 380">
  <defs>
    <style>
      .cls-1 {
        fill: #154c4d;
        fill-rule: evenodd;
      }
    </style>
  </defs>
  <path id="Color_Fill_1" data-name="Color Fill 1" class="cls-1" d="M357,100s-20.467,3.8-32-18c-11.933-30.4-53.267-50-88-22-54.133,52-7.867,115.6,15,134-58.733-27.2-100.55,6.2-143,18C79.35,223.2,53.575,241,8,238c37.625,66,98.5,106,165,120-299.05-2.2-145.5,27.6,58,12,134.9-6.6,7.426-9.755-1-11,79.074-5.125,170.6-94.4,84-185-14.45-12.6-26-23-26-23s-18.15-20.75,10-30c31.55-.25,60.25.85,66,0C376.55,121.15,382,100.8,357,100ZM286.5,77A10.012,10.012,0,1,1,276,87,10.259,10.259,0,0,1,286.5,77Z"/>
</svg>
